<?xml version="1.0" encoding="UTF-8"?>
<svg width="106px" height="132px" viewBox="0 0 106 132" version="1.1" xmlns="http://www.w3.org/2000/svg" xmlns:xlink="http://www.w3.org/1999/xlink">
    <!-- Generator: Sketch 48.1 (47250) - http://www.bohemiancoding.com/sketch -->
    <title>Group 29</title>
    <desc>Created with Sketch.</desc>
    <defs></defs>
    <g id="Mobile-Portrait" stroke="none" stroke-width="1" fill="none" fill-rule="evenodd" transform="translate(-167.000000, -6157.000000)">
        <g id="Vendors" transform="translate(16.000000, 6094.000000)" stroke="#22BCB2" stroke-width="2">
            <g id="Group-3" transform="translate(31.000000, 63.000000)">
                <g id="Art-Booth" transform="translate(120.000000, 0.000000)">
                    <g id="Group-29" transform="translate(1.000000, 1.000000)">
                        <path d="M26,38.7132353 C26,41.0886029 24.0774312,43.0147059 21.706422,43.0147059 C19.3354128,43.0147059 17.412844,41.0886029 17.412844,38.7132353 L26,38.7132353 Z" id="Stroke-3"></path>
                        <path d="M34.587156,38.7132353 C34.587156,41.0886029 32.6645872,43.0147059 30.293578,43.0147059 C27.9225688,43.0147059 26,41.0886029 26,38.7132353" id="Stroke-5"></path>
                        <path d="M43.1743119,38.7132353 C43.1743119,41.0886029 41.2517431,43.0147059 38.8807339,43.0147059 C36.5097248,43.0147059 34.587156,41.0886029 34.587156,38.7132353" id="Stroke-7"></path>
                        <path d="M51.7614679,38.7132353 C51.7614679,41.0886029 49.8388991,43.0147059 47.4678899,43.0147059 C45.0968807,43.0147059 43.1743119,41.0886029 43.1743119,38.7132353" id="Stroke-9"></path>
                        <path d="M60.3486239,38.7132353 C60.3486239,41.0886029 58.426055,43.0147059 56.0550459,43.0147059 C53.6840367,43.0147059 51.7614679,41.0886029 51.7614679,38.7132353" id="Stroke-11"></path>
                        <path d="M68.9357798,38.7132353 C68.9357798,41.0886029 67.013211,43.0147059 64.6422018,43.0147059 C62.2711927,43.0147059 60.3486239,41.0886029 60.3486239,38.7132353" id="Stroke-13"></path>
                        <path d="M77.5229358,38.7132353 C77.5229358,41.0886029 75.600367,43.0147059 73.2293578,43.0147059 C70.8583486,43.0147059 68.9357798,41.0886029 68.9357798,38.7132353" id="Stroke-15"></path>
                        <path d="M86.1100917,38.7132353 C86.1100917,41.0886029 84.1875229,43.0147059 81.8165138,43.0147059 C79.4455046,43.0147059 77.5229358,41.0886029 77.5229358,38.7132353" id="Stroke-17"></path>
                        <polygon id="Stroke-19" points="26.0791927 68.5052206 43.412844 68.5052206 43.412844 50.9810294 26.0791927 50.9810294"></polygon>
                        <polygon id="Stroke-21" points="60.4278165 68.5052206 77.7614679 68.5052206 77.7614679 50.9810294 60.4278165 50.9810294"></polygon>
                        <polygon id="Stroke-22" points="47.5480367 68.5052206 56.4529174 68.5052206 56.4529174 50.9810294 47.5480367 50.9810294"></polygon>
                        <polygon id="Stroke-23" points="26.0791927 90.17125 43.412844 90.17125 43.412844 72.6470588 26.0791927 72.6470588"></polygon>
                        <polygon id="Stroke-24" points="47.5470826 90.17125 64.8807339 90.17125 64.8807339 72.6470588 47.5470826 72.6470588"></polygon>
                        <polygon id="Stroke-25" points="68.8565872 90.17125 77.7614679 90.17125 77.7614679 72.6470588 68.8565872 72.6470588"></polygon>
                        <path d="M20.5137615,98.4558824 L83.4862385,98.4558824" id="Stroke-26"></path>
                        <polygon id="Stroke-27" stroke-linecap="round" stroke-linejoin="round" points="17.6513761 0.477941176 17.6513761 17.6838235 0.47706422 17.6838235"></polygon>
                        <polygon id="Stroke-28" stroke-linecap="round" stroke-linejoin="round" points="103.522936 0.477941176 103.522936 129.522059 0.47706422 129.522059 0.47706422 17.6838235 17.6513761 0.477941176"></polygon>
                        <polyline id="Stroke-1" points="20.2752294 42.8555515 20.2752294 107.537243 17.412844 107.537243 17.412844 38.7137132 34.587156 21.5078309 68.9357798 21.5078309 86.1100917 38.7137132 86.1100917 107.537243 83.2477064 107.537243 83.2477064 42.8555515"></polyline>
                        <path d="M17.412844,38.7132353 L86.1100917,38.7132353" id="Stroke-2"></path>
                    </g>
                </g>
            </g>
        </g>
    </g>
</svg>