<?xml version="1.0" encoding="UTF-8"?>
<svg width="60px" height="60px" viewBox="0 0 60 60" version="1.1" xmlns="http://www.w3.org/2000/svg" xmlns:xlink="http://www.w3.org/1999/xlink">
    <!-- Generator: Sketch 48.1 (47250) - http://www.bohemiancoding.com/sketch -->
    <title>f</title>
    <desc>Created with Sketch.</desc>
    <defs></defs>
    <g id="Mobile-Portrait" stroke="none" stroke-width="1" fill="none" fill-rule="evenodd" transform="translate(-16.000000, -11271.000000)">
        <path d="M38.2222222,11296.5192 L38.2222222,11302.0669 L42.6666667,11302.0669 L42.6666667,11315.5519 L48.2222222,11315.5519 L48.2222222,11302.0669 L53.7777778,11302.0669 L53.7777778,11296.5192 L48.2222222,11296.5192 L48.2222222,11293.7027 C48.2222222,11292.7639 48.8205128,11291.9957 49.3333333,11291.9957 L53.7777778,11291.9957 L53.7777778,11286.5334 L49.3333333,11286.5334 C45.6581197,11286.5334 42.6666667,11289.7767 42.6666667,11293.7881 L42.6666667,11296.5192 L38.2222222,11296.5192 Z M46,11331 C29.4188034,11331 16,11317.6003 16,11301.0427 C16,11284.4851 29.4188034,11271 46,11271 C62.5811966,11271 76,11284.4851 76,11301.0427 C76,11317.6003 62.5811966,11331 46,11331 Z" id="f" fill="#22BCB2"></path>
    </g>
</svg>