<?xml version="1.0" encoding="UTF-8"?>
<svg width="106px" height="132px" viewBox="0 0 106 132" version="1.1" xmlns="http://www.w3.org/2000/svg" xmlns:xlink="http://www.w3.org/1999/xlink">
    <!-- Generator: Sketch 48.1 (47250) - http://www.bohemiancoding.com/sketch -->
    <title>Group 50</title>
    <desc>Created with Sketch.</desc>
    <defs></defs>
    <g id="Mobile-Portrait" stroke="none" stroke-width="1" fill="none" fill-rule="evenodd" transform="translate(-47.000000, -6359.000000)">
        <g id="Vendors" transform="translate(16.000000, 6094.000000)" stroke="#22BCB2" stroke-width="2">
            <g id="Group-2" transform="translate(32.000000, 266.000000)">
                <g id="Food-Booth">
                    <g id="Group-50">
                        <path d="M26,38.5185185 C26,40.9114815 24.0596296,42.8518519 21.6666667,42.8518519 C19.2737037,42.8518519 17.3333333,40.9114815 17.3333333,38.5185185" id="Stroke-4"></path>
                        <path d="M34.6666667,38.5185185 C34.6666667,40.9114815 32.7262963,42.8518519 30.3333333,42.8518519 C27.9403704,42.8518519 26,40.9114815 26,38.5185185" id="Stroke-6"></path>
                        <path d="M43.3333333,38.5185185 C43.3333333,40.9114815 41.392963,42.8518519 39,42.8518519 C36.607037,42.8518519 34.6666667,40.9114815 34.6666667,38.5185185" id="Stroke-8"></path>
                        <path d="M52,38.5185185 C52,40.9114815 50.0596296,42.8518519 47.6666667,42.8518519 C45.2737037,42.8518519 43.3333333,40.9114815 43.3333333,38.5185185" id="Stroke-10"></path>
                        <path d="M60.6666667,38.5185185 C60.6666667,40.9114815 58.7262963,42.8518519 56.3333333,42.8518519 C53.9403704,42.8518519 52,40.9114815 52,38.5185185" id="Stroke-12"></path>
                        <path d="M69.3333333,38.5185185 C69.3333333,40.9114815 67.392963,42.8518519 65,42.8518519 C62.607037,42.8518519 60.6666667,40.9114815 60.6666667,38.5185185" id="Stroke-14"></path>
                        <path d="M78,38.5185185 C78,40.9114815 76.0596296,42.8518519 73.6666667,42.8518519 C71.2737037,42.8518519 69.3333333,40.9114815 69.3333333,38.5185185" id="Stroke-16"></path>
                        <path d="M86.6666667,38.5185185 C86.6666667,40.9114815 84.7262963,42.8518519 82.3333333,42.8518519 C79.9403704,42.8518519 78,40.9114815 78,38.5185185" id="Stroke-18"></path>
                        <path d="M20.2222222,72.7836296 L20.2222222,42.3703704" id="Stroke-20"></path>
                        <path d="M83.7777778,72.7836296 L83.7777778,42.3703704" id="Stroke-22"></path>
                        <path d="M72.6719259,56.0771852 C72.6719259,58.8601481 70.4157037,61.1163704 67.6327407,61.1163704 C64.8488148,61.1163704 62.5925926,58.8601481 62.5925926,56.0771852 C62.5925926,53.2932593 64.8488148,51.037037 67.6327407,51.037037 C70.4157037,51.037037 72.6719259,53.2932593 72.6719259,56.0771852 Z" id="Stroke-24"></path>
                        <path d="M57.7777778,72.4302222 C57.7777778,66.9962222 62.1823704,62.5925926 67.6154074,62.5925926 C73.0484444,62.5925926 77.454,66.9962222 77.454,72.4302222" id="Stroke-26"></path>
                        <path d="M45.7262963,97.5416562 C50.4881481,99.186397 61.0576296,95.5637303 64.8102963,92.9743229 C69.1879259,89.9515822 70.3993333,84.1160266 67.5152593,79.9386933 C64.6311852,75.7613599 58.7445926,74.824397 54.366963,77.8461748 C50.6412593,80.4192118 43.5779259,88.9173599 43.3333333,93.9681007" id="Stroke-28"></path>
                        <path d="M41.0552492,101.404815 L46.0684344,97.9448889 C45.273027,97.6704444 44.6345826,97.2534815 44.2224344,96.6564444 C43.7929529,96.0343704 43.6321381,95.2543704 43.6754714,94.3703704 L38.6064344,97.8697778 C37.9285085,96.9713333 36.6256196,96.7787407 35.6462863,97.4537778 C34.6419159,98.1471111 34.3645826,99.4856296 35.0261381,100.443778 C35.6665085,101.373037 36.952064,101.595481 37.9448789,100.977259 C37.0156196,101.686963 36.7681381,102.967704 37.4085085,103.896 C38.070064,104.855111 39.4201381,105.068889 40.4245085,104.375556 C41.4221381,103.687037 41.7004344,102.362 41.0552492,101.404815 Z" id="Stroke-30" stroke-linecap="round" stroke-linejoin="round"></path>
                        <path d="M43.3398886,94.3703704 C43.2975182,95.2534074 43.458333,96.0343704 43.8868516,96.6564444 C44.2999627,97.2534815 44.9384071,97.6694815 45.7328516,97.9439259" id="Stroke-32"></path>
                        <path d="M52.0799259,72.1817778 L26,72.1817778 L26,51.0572593 C26,50.5141481 26.4400741,50.0740741 26.9831852,50.0740741 L50.9965926,50.0740741 C51.5945926,50.0740741 52.0799259,50.5584444 52.0799259,51.1574074 L52.0799259,72.1817778 Z" id="Stroke-34" stroke-linecap="round" stroke-linejoin="round"></path>
                        <path d="M39.4814815,51.037037 L39.4814815,72.9444444" id="Stroke-36"></path>
                        <path d="M26,62.5925926 L52.0404444,62.5925926" id="Stroke-38"></path>
                        <path d="M29.8518519,72.6632593 L29.8518519,68.4339259 C29.8518519,66.8103704 31.2154074,65.4814815 32.8813333,65.4814815 C34.5472593,65.4814815 35.9108148,66.8103704 35.9108148,68.4339259 L35.9108148,72.6632593" id="Stroke-40"></path>
                        <path d="M42.3703704,72.6632593 L42.3703704,68.4339259 C42.3703704,66.8103704 43.7339259,65.4814815 45.3998519,65.4814815 C47.0657778,65.4814815 48.4293333,66.8103704 48.4293333,68.4339259 L48.4293333,72.6632593" id="Stroke-42"></path>
                        <path d="M26,56.6742222 C26,56.6742222 28.9495556,55.7517037 31.9385926,56.654 C33.7817037,57.2115556 36.4433333,57.0767407 39.0799259,56.2726667 C42.1094074,55.3501481 44.2962963,57.3165185 47.5665185,57.2558519 C50.8367407,57.1961481 52.1203704,55.8518519 52.1203704,55.8518519" id="Stroke-44"></path>
                        <polygon id="Stroke-46" stroke-linecap="round" stroke-linejoin="round" points="17.3333333 0 17.3333333 17.3333333 0 17.3333333"></polygon>
                        <polygon id="Stroke-48" stroke-linecap="round" stroke-linejoin="round" points="104 0 104 130 0 130 0 17.3333333 17.3333333 0"></polygon>
                        <polygon id="Stroke-1" points="17.3333333 38.5185185 34.6666667 21.1851852 69.3333333 21.1851852 86.6666667 38.5185185 86.6666667 107.851852 17.3333333 107.851852"></polygon>
                        <path d="M17.3333333,38.5185185 L86.6666667,38.5185185" id="Stroke-2"></path>
                        <path d="M17.3333333,73.1851852 L86.6666667,73.1851852" id="Stroke-3"></path>
                    </g>
                </g>
            </g>
        </g>
    </g>
</svg>