<?xml version="1.0" encoding="UTF-8"?>
<svg width="106px" height="132px" viewBox="0 0 106 132" version="1.1" xmlns="http://www.w3.org/2000/svg" xmlns:xlink="http://www.w3.org/1999/xlink">
    <!-- Generator: Sketch 48.1 (47250) - http://www.bohemiancoding.com/sketch -->
    <title>Group 44</title>
    <desc>Created with Sketch.</desc>
    <defs></defs>
    <g id="Mobile-Portrait" stroke="none" stroke-width="1" fill="none" fill-rule="evenodd" transform="translate(-47.000000, -6157.000000)">
        <g id="Vendors" transform="translate(16.000000, 6094.000000)" stroke="#22BCB2" stroke-width="2">
            <g id="Group-3" transform="translate(31.000000, 63.000000)">
                <g id="Game-Booth">
                    <g id="Group-44" transform="translate(1.000000, 1.000000)">
                        <path d="M64.8807339,90.3308824 C64.8807339,97.4579412 59.1139817,103.235294 52,103.235294 C44.8860183,103.235294 39.1192661,97.4579412 39.1192661,90.3308824 C39.1192661,83.2038235 44.8860183,77.4264706 52,77.4264706 C59.1139817,77.4264706 64.8807339,83.2038235 64.8807339,90.3308824 Z" id="Stroke-4"></path>
                        <path d="M56.5321101,90.3308824 C56.5321101,92.8391176 54.503633,94.8713235 52,94.8713235 C49.496367,94.8713235 47.4678899,92.8391176 47.4678899,90.3308824 C47.4678899,87.8226471 49.496367,85.7904412 52,85.7904412 C54.503633,85.7904412 56.5321101,87.8226471 56.5321101,90.3308824 Z" id="Stroke-6"></path>
                        <path d="M60.6267523,90.3308824 C60.6267523,95.1045588 56.7644404,98.9739706 51.9995229,98.9739706 C47.2355596,98.9739706 43.3732477,95.1045588 43.3732477,90.3308824 C43.3732477,85.5572059 47.2355596,81.6877941 51.9995229,81.6877941 C56.7644404,81.6877941 60.6267523,85.5572059 60.6267523,90.3308824 Z" id="Stroke-8"></path>
                        <path d="M26.2385321,38.7132353 C26.2385321,41.0886029 24.3159633,43.0147059 21.9449541,43.0147059 C19.573945,43.0147059 17.6513761,41.0886029 17.6513761,38.7132353" id="Stroke-10"></path>
                        <path d="M34.8256881,38.7132353 C34.8256881,41.0886029 32.9031193,43.0147059 30.5321101,43.0147059 C28.1611009,43.0147059 26.2385321,41.0886029 26.2385321,38.7132353" id="Stroke-12"></path>
                        <path d="M43.412844,38.7132353 C43.412844,41.0886029 41.4902752,43.0147059 39.1192661,43.0147059 C36.7482569,43.0147059 34.8256881,41.0886029 34.8256881,38.7132353" id="Stroke-14"></path>
                        <path d="M52,38.7132353 C52,41.0886029 50.0774312,43.0147059 47.706422,43.0147059 C45.3354128,43.0147059 43.412844,41.0886029 43.412844,38.7132353" id="Stroke-16"></path>
                        <path d="M60.587156,38.7132353 C60.587156,41.0886029 58.6645872,43.0147059 56.293578,43.0147059 C53.9225688,43.0147059 52,41.0886029 52,38.7132353" id="Stroke-18"></path>
                        <path d="M69.1743119,38.7132353 C69.1743119,41.0886029 67.2517431,43.0147059 64.8807339,43.0147059 C62.5097248,43.0147059 60.587156,41.0886029 60.587156,38.7132353" id="Stroke-20"></path>
                        <path d="M77.7614679,38.7132353 C77.7614679,41.0886029 75.8388991,43.0147059 73.4678899,43.0147059 C71.0968807,43.0147059 69.1743119,41.0886029 69.1743119,38.7132353" id="Stroke-22"></path>
                        <path d="M86.3486239,38.7132353 C86.3486239,41.0886029 84.426055,43.0147059 82.0550459,43.0147059 C79.6840367,43.0147059 77.7614679,41.0886029 77.7614679,38.7132353" id="Stroke-24"></path>
                        <path d="M20.5137615,73.0451838 L20.5137615,42.8555515" id="Stroke-26"></path>
                        <path d="M83.4862385,73.0451838 L83.4862385,42.8555515" id="Stroke-28"></path>
                        <path d="M70.0422826,56.1426985 C70.0422826,58.9051985 67.8067596,61.1448309 65.0493284,61.1448309 C62.2909431,61.1448309 60.0554202,58.9051985 60.0554202,56.1426985 C60.0554202,53.3792426 62.2909431,51.1396103 65.0493284,51.1396103 C67.8067596,51.1396103 70.0422826,53.3792426 70.0422826,56.1426985 Z" id="Stroke-30"></path>
                        <path d="M55.4037578,73.0353382 C55.4037578,67.6412941 59.7679413,63.2700441 65.1511339,63.2700441 C70.5343266,63.2700441 74.8994642,67.6412941 74.8994642,73.0353382" id="Stroke-32"></path>
                        <path d="M34.9845505,61.6170368 L32.9169541,61.6170368 C31.430422,61.6170368 30.2139083,62.8357868 30.2139083,64.3250515 L30.2139083,72.8065956 L37.6875963,72.8065956 L37.6875963,64.3250515 C37.6875963,62.8357868 36.4720367,61.6170368 34.9845505,61.6170368 Z" id="Stroke-34"></path>
                        <path d="M44.2081101,61.6170368 L42.1405138,61.6170368 C40.6539817,61.6170368 39.4374679,62.8357868 39.4374679,64.3250515 L39.4374679,72.8065956 L46.911156,72.8065956 L46.911156,64.3250515 C46.911156,62.8357868 45.6946422,61.6170368 44.2081101,61.6170368 Z" id="Stroke-36"></path>
                        <path d="M39.5963303,50.0246691 L37.5287339,50.0246691 C36.0422018,50.0246691 34.8256881,51.2434191 34.8256881,52.7326838 L34.8256881,61.2142279 L42.2993761,61.2142279 L42.2993761,52.7326838 C42.2993761,51.2434191 41.0828624,50.0246691 39.5963303,50.0246691 Z" id="Stroke-38"></path>
                        <polygon id="Stroke-40" stroke-linecap="round" stroke-linejoin="round" points="17.6513761 0.477941176 17.6513761 17.6838235 0.47706422 17.6838235"></polygon>
                        <polygon id="Stroke-42" stroke-linecap="round" stroke-linejoin="round" points="103.522936 0.477941176 103.522936 129.522059 0.47706422 129.522059 0.47706422 17.6838235 17.6513761 0.477941176"></polygon>
                        <polygon id="Stroke-1" points="17.6513761 38.7132353 34.8256881 21.5073529 69.1743119 21.5073529 86.3486239 38.7132353 86.3486239 107.536765 17.6513761 107.536765"></polygon>
                        <path d="M17.6513761,38.7132353 L86.3486239,38.7132353" id="Stroke-2"></path>
                        <path d="M17.6513761,73.125 L86.3486239,73.125" id="Stroke-3"></path>
                    </g>
                </g>
            </g>
        </g>
    </g>
</svg>