<?xml version="1.0" encoding="UTF-8"?>
<svg width="106px" height="132px" viewBox="0 0 106 132" version="1.1" xmlns="http://www.w3.org/2000/svg" xmlns:xlink="http://www.w3.org/1999/xlink">
    <!-- Generator: Sketch 48.1 (47250) - http://www.bohemiancoding.com/sketch -->
    <title>Non-Profit Booth Selected</title>
    <desc>Created with Sketch.</desc>
    <defs></defs>
    <g id="Desktop" stroke="none" stroke-width="1" fill="none" fill-rule="evenodd" transform="translate(-491.000000, -6387.000000)">
        <g id="States" transform="translate(119.000000, 6199.000000)" stroke-width="2">
            <g id="Hover-and-Selected" transform="translate(0.000000, 188.000000)">
                <g id="Non-Profit-Booth-Selected" transform="translate(373.000000, 1.000000)">
                    <polygon id="Stroke-38" stroke="#22BCB2" fill="#22BCB2" stroke-linecap="round" stroke-linejoin="round" points="103.522936 0.477941176 103.522936 129.522059 0.47706422 129.522059 0.47706422 17.6838235 17.6513761 0.477941176"></polygon>
                    <polygon id="Stroke-1" stroke="#FFFFFF" points="17.412844 38.7132353 34.587156 21.5073529 68.9357798 21.5073529 86.1100917 38.7132353 86.1100917 107.536765 17.412844 107.536765"></polygon>
                    <path d="M17.412844,38.7132353 L86.1100917,38.7132353" id="Stroke-2" stroke="#FFFFFF"></path>
                    <path d="M17.412844,73.125 L86.1100917,73.125" id="Stroke-3" stroke="#FFFFFF"></path>
                    <g id="Group-39" stroke="#FFFFFF">
                        <path d="M26,38.7132353 C26,41.0886029 24.0774312,43.0147059 21.706422,43.0147059 C19.3354128,43.0147059 17.412844,41.0886029 17.412844,38.7132353 L26,38.7132353 Z" id="Stroke-4"></path>
                        <path d="M34.587156,38.7132353 C34.587156,41.0886029 32.6645872,43.0147059 30.293578,43.0147059 C27.9225688,43.0147059 26,41.0886029 26,38.7132353" id="Stroke-6"></path>
                        <path d="M43.1743119,38.7132353 C43.1743119,41.0886029 41.2517431,43.0147059 38.8807339,43.0147059 C36.5097248,43.0147059 34.587156,41.0886029 34.587156,38.7132353" id="Stroke-8"></path>
                        <path d="M51.7614679,38.7132353 C51.7614679,41.0886029 49.8388991,43.0147059 47.4678899,43.0147059 C45.0968807,43.0147059 43.1743119,41.0886029 43.1743119,38.7132353" id="Stroke-10"></path>
                        <path d="M60.3486239,38.7132353 C60.3486239,41.0886029 58.426055,43.0147059 56.0550459,43.0147059 C53.6840367,43.0147059 51.7614679,41.0886029 51.7614679,38.7132353" id="Stroke-12"></path>
                        <path d="M68.9357798,38.7132353 C68.9357798,41.0886029 67.013211,43.0147059 64.6422018,43.0147059 C62.2711927,43.0147059 60.3486239,41.0886029 60.3486239,38.7132353" id="Stroke-14"></path>
                        <path d="M77.5229358,38.7132353 C77.5229358,41.0886029 75.600367,43.0147059 73.2293578,43.0147059 C70.8583486,43.0147059 68.9357798,41.0886029 68.9357798,38.7132353" id="Stroke-16"></path>
                        <path d="M86.1100917,38.7132353 C86.1100917,41.0886029 84.1875229,43.0147059 81.8165138,43.0147059 C79.4455046,43.0147059 77.5229358,41.0886029 77.5229358,38.7132353" id="Stroke-18"></path>
                        <path d="M20.2752294,73.0451838 L20.2752294,42.8555515" id="Stroke-20"></path>
                        <path d="M83.2477064,73.0451838 L83.2477064,42.8555515" id="Stroke-22"></path>
                        <polygon id="Stroke-24" stroke-linecap="round" stroke-linejoin="round" points="51.7614679 75.8134191 33.9268991 87.3834191 69.5960367 87.3834191"></polygon>
                        <polygon id="Stroke-26" points="45.440367 99.5914706 49.5545688 99.5914706 49.5545688 87.4632353 45.440367 87.4632353"></polygon>
                        <polygon id="Stroke-28" points="36.794055 99.5914706 40.9082569 99.5914706 40.9082569 87.4632353 36.794055 87.4632353"></polygon>
                        <polygon id="Stroke-29" points="62.6146789 99.5914706 66.7288807 99.5914706 66.7288807 87.4632353 62.6146789 87.4632353"></polygon>
                        <polygon id="Stroke-30" points="53.968367 99.5914706 58.0825688 99.5914706 58.0825688 87.4632353 53.968367 87.4632353"></polygon>
                        <polygon id="Stroke-31" points="34.884844 103.59375 68.9357798 103.59375 68.9357798 99.5914706 34.884844 99.5914706"></polygon>
                        <path d="M54.9220183,82.3851103 C54.9220183,84.134375 53.5070459,85.5519485 51.7609908,85.5519485 C50.0158899,85.5519485 48.6009174,84.134375 48.6009174,82.3851103 C48.6009174,80.6358456 50.0158899,79.2182721 51.7609908,79.2182721 C53.5070459,79.2182721 54.9220183,80.6358456 54.9220183,82.3851103 Z" id="Stroke-32"></path>
                        <path d="M43.3266862,56.1426985 C43.3266862,58.9051985 41.0911633,61.1448309 38.3337321,61.1448309 C35.5753468,61.1448309 33.3398239,58.9051985 33.3398239,56.1426985 C33.3398239,53.3792426 35.5753468,51.1396103 38.3337321,51.1396103 C41.0911633,51.1396103 43.3266862,53.3792426 43.3266862,56.1426985 Z" id="Stroke-33"></path>
                        <path d="M28.6881615,73.0353382 C28.6881615,67.6412941 33.052345,63.2700441 38.4355376,63.2700441 C43.8187303,63.2700441 48.1838679,67.6412941 48.1838679,73.0353382" id="Stroke-34"></path>
                        <path d="M70.0422826,56.1426985 C70.0422826,58.9051985 67.8067596,61.1448309 65.0493284,61.1448309 C62.2909431,61.1448309 60.0554202,58.9051985 60.0554202,56.1426985 C60.0554202,53.3792426 62.2909431,51.1396103 65.0493284,51.1396103 C67.8067596,51.1396103 70.0422826,53.3792426 70.0422826,56.1426985 Z" id="Stroke-35"></path>
                        <path d="M55.4037578,73.0353382 C55.4037578,67.6412941 59.7679413,63.2700441 65.1511339,63.2700441 C70.5343266,63.2700441 74.8994642,67.6412941 74.8994642,73.0353382" id="Stroke-36"></path>
                    </g>
                </g>
            </g>
        </g>
    </g>
</svg>