<?xml version="1.0" encoding="UTF-8"?>
<svg width="106px" height="132px" viewBox="0 0 106 132" version="1.1" xmlns="http://www.w3.org/2000/svg" xmlns:xlink="http://www.w3.org/1999/xlink">
    <!-- Generator: Sketch 48.1 (47250) - http://www.bohemiancoding.com/sketch -->
    <title>Volunteer Form</title>
    <desc>Created with Sketch.</desc>
    <defs></defs>
    <g id="Desktop" stroke="none" stroke-width="1" fill="none" fill-rule="evenodd" transform="translate(-615.000000, -6387.000000)">
        <g id="States" transform="translate(119.000000, 6199.000000)" stroke-width="2">
            <g id="Hover-and-Selected" transform="translate(0.000000, 188.000000)">
                <g id="Volunteer-Form" transform="translate(497.000000, 1.000000)">
                    <polygon id="Stroke-42" stroke="#22BCB2" fill="#22BCB2" stroke-linecap="round" stroke-linejoin="round" points="103.045872 0 103.045872 129.044118 0 129.044118 0 17.2058824 17.1743119 0"></polygon>
                    <g id="Volunteer" transform="translate(17.000000, 33.000000)" stroke="#FFFFFF">
                        <path d="M46,11.0010509 C46,17.0753798 41.0753798,22 35.0010509,22 C28.9246202,22 24,17.0753798 24,11.0010509 C24,4.92462024 28.9246202,0 35.0010509,0 C41.0753798,0 46,4.92462024 46,11.0010509 Z" id="Stroke-30"></path>
                        <path d="M14,49 C14,36.8478857 23.6257035,27 35.4989478,27 C47.372192,27 57,36.8478857 57,49" id="Stroke-32"></path>
                        <path d="M0.651376147,50.125 L69.3486239,50.125" id="Stroke-3"></path>
                    </g>
                </g>
            </g>
        </g>
    </g>
</svg>