<?xml version="1.0" encoding="UTF-8"?>
<svg width="106px" height="132px" viewBox="0 0 106 132" version="1.1" xmlns="http://www.w3.org/2000/svg" xmlns:xlink="http://www.w3.org/1999/xlink">
    <!-- Generator: Sketch 48.1 (47250) - http://www.bohemiancoding.com/sketch -->
    <title>Volunteer</title>
    <desc>Created with Sketch.</desc>
    <defs></defs>
    <g id="Mobile-Portrait" stroke="none" stroke-width="1" fill="none" fill-rule="evenodd" transform="translate(-47.000000, -8439.000000)">
        <g id="Volunteers" transform="translate(16.000000, 8290.000000)" stroke="#22BCB2" stroke-width="2">
            <g id="Volunteer-Form" transform="translate(32.000000, 150.000000)">
                <g id="Volunteer">
                    <path d="M63,44.0010509 C63,50.0753798 58.0753798,55 52.0010509,55 C45.9246202,55 41,50.0753798 41,44.0010509 C41,37.9246202 45.9246202,33 52.0010509,33 C58.0753798,33 63,37.9246202 63,44.0010509 Z" id="Stroke-30"></path>
                    <path d="M31,82 C31,69.8478857 40.6257035,60 52.4989478,60 C64.372192,60 74,69.8478857 74,82" id="Stroke-32"></path>
                    <path d="M17.6513761,83.125 L86.3486239,83.125" id="Stroke-3"></path>
                    <polygon id="Stroke-42" stroke-linecap="round" stroke-linejoin="round" points="103.045872 0 103.045872 129.044118 0 129.044118 0 17.2058824 17.1743119 0"></polygon>
                    <polygon id="Stroke-40" stroke-linecap="round" stroke-linejoin="round" points="17.1743119 0 17.1743119 17.2058824 0 17.2058824"></polygon>
                </g>
            </g>
        </g>
    </g>
</svg>